<svg width="37" height="37" viewBox="0 0 37 37" fill="none" xmlns="http://www.w3.org/2000/svg">
<path d="M30.0586 12.0898L18.0586 19.5898L6.05859 12.0898V9.08984L18.0586 16.5898L30.0586 9.08984M30.0586 6.08984H6.05859C4.39359 6.08984 3.05859 7.42484 3.05859 9.08984V27.0898C3.05859 27.8855 3.37466 28.6486 3.93727 29.2112C4.49988 29.7738 5.26294 30.0898 6.05859 30.0898H30.0586C30.8542 30.0898 31.6173 29.7738 32.1799 29.2112C32.7425 28.6486 33.0586 27.8855 33.0586 27.0898V9.08984C33.0586 8.29419 32.7425 7.53113 32.1799 6.96852C31.6173 6.40591 30.8542 6.08984 30.0586 6.08984Z" fill="white"/>
</svg>
