<svg width="37" height="37" viewBox="0 0 37 37" fill="none" xmlns="http://www.w3.org/2000/svg">
<path d="M10.6037 0.215731C8.68854 0.306091 7.38066 0.611731 6.2373 1.06101C5.05398 1.52217 4.05102 2.14101 3.0531 3.14253C2.05518 4.14405 1.44066 5.14773 0.982743 6.33285C0.539583 7.47873 0.239343 8.78769 0.154743 10.704C0.0701429 12.6203 0.0514229 13.2362 0.0607829 18.1243C0.0701429 23.0124 0.0917429 23.6251 0.184623 25.5453C0.276063 27.4602 0.580623 28.7677 1.0299 29.9114C1.49178 31.0947 2.1099 32.0973 3.11178 33.0956C4.11366 34.0939 5.11662 34.707 6.30462 35.1656C7.44942 35.6081 8.75874 35.9097 10.6747 35.9936C12.5906 36.0775 13.2073 36.0969 18.0939 36.0876C22.9805 36.0782 23.5958 36.0566 25.5157 35.9655C27.4355 35.8745 28.7362 35.5677 29.8803 35.1206C31.0636 34.6576 32.0669 34.0406 33.0645 33.0384C34.0621 32.0361 34.6762 31.0317 35.1338 29.8459C35.5773 28.7011 35.8786 27.3918 35.9618 25.4773C36.0457 23.556 36.0655 22.9425 36.0561 18.0552C36.0467 13.1678 36.0248 12.5551 35.9337 10.6356C35.8426 8.71605 35.5377 7.41249 35.0888 6.26805C34.6262 5.08473 34.0088 4.08285 33.0073 3.08385C32.0057 2.08485 31.0006 1.47105 29.8151 1.01457C28.6696 0.571411 27.361 0.269371 25.4451 0.186571C23.5292 0.103771 22.9125 0.0825315 18.0241 0.0918915C13.1356 0.101251 12.5236 0.122131 10.6037 0.215731ZM10.814 32.7554C9.05898 32.6791 8.10606 32.3875 7.47102 32.1434C6.63006 31.8194 6.03102 31.4277 5.39814 30.801C4.76526 30.1742 4.37646 29.573 4.04814 28.7339C3.80154 28.0988 3.50454 27.147 3.42246 25.392C3.33318 23.4951 3.31446 22.9256 3.30402 18.12C3.29358 13.3143 3.31194 12.7455 3.3951 10.848C3.46998 9.09441 3.76338 8.14041 4.0071 7.50573C4.3311 6.66369 4.72134 6.06573 5.34954 5.43321C5.97774 4.80069 6.57714 4.41117 7.41702 4.08285C8.05134 3.83517 9.00318 3.54069 10.7575 3.45717C12.6557 3.36717 13.2245 3.34917 18.0295 3.33873C22.8344 3.32829 23.4046 3.34629 25.3036 3.42981C27.0572 3.50613 28.0115 3.79665 28.6455 4.04181C29.4868 4.36581 30.0855 4.75497 30.718 5.38425C31.3505 6.01353 31.7404 6.61077 32.0687 7.45245C32.3168 8.08497 32.6113 9.03645 32.6941 10.7918C32.7844 12.6901 32.8049 13.2593 32.8136 18.0638C32.8222 22.8684 32.8053 23.439 32.7221 25.3358C32.6455 27.0908 32.3546 28.0441 32.1101 28.6798C31.7861 29.5205 31.3955 30.1199 30.767 30.752C30.1384 31.3842 29.5397 31.7737 28.6995 32.102C28.0659 32.3493 27.113 32.6445 25.3601 32.7281C23.4619 32.8173 22.8931 32.836 18.0863 32.8465C13.2796 32.8569 12.7126 32.8375 10.8143 32.7554M25.4879 8.46945C25.4887 8.89669 25.6161 9.31412 25.854 9.66895C26.092 10.0238 26.4298 10.3001 26.8248 10.4629C27.2198 10.6257 27.6543 10.6677 28.0731 10.5836C28.492 10.4995 28.8765 10.2931 29.1781 9.99039C29.4796 9.68774 29.6847 9.30245 29.7672 8.88327C29.8498 8.46409 29.8062 8.02983 29.6419 7.63543C29.4777 7.24103 29.2002 6.90419 28.8445 6.66753C28.4888 6.43086 28.0709 6.305 27.6436 6.30585C27.0709 6.307 26.522 6.53557 26.1178 6.9413C25.7135 7.34703 25.487 7.89671 25.4879 8.46945ZM8.81634 18.1077C8.82642 23.2125 12.9722 27.3414 18.0759 27.3316C23.1796 27.3219 27.3113 23.1765 27.3016 18.0717C27.2919 12.9669 23.1451 8.83701 18.0406 8.84709C12.9362 8.85717 8.80662 13.0037 8.81634 18.1077ZM12.0585 18.1013C12.0562 16.9145 12.4058 15.7538 13.0631 14.7658C13.7205 13.7778 14.656 13.0069 15.7515 12.5505C16.847 12.0942 18.0532 11.973 19.2175 12.2022C20.3819 12.4315 21.4521 13.0008 22.2929 13.8383C23.1337 14.6757 23.7073 15.7437 23.9411 16.9072C24.1749 18.0706 24.0585 19.2773 23.6065 20.3745C23.1546 21.4718 22.3874 22.4104 21.402 23.0717C20.4166 23.7329 19.2572 24.0871 18.0705 24.0895C17.2825 24.0911 16.5019 23.9376 15.7733 23.6375C15.0447 23.3374 14.3824 22.8968 13.8241 22.3407C13.2658 21.7846 12.8225 21.124 12.5196 20.3966C12.2166 19.6692 12.06 18.8892 12.0585 18.1013Z" fill="white"/>
</svg>
