<svg width="24" height="24" viewBox="0 0 24 24" fill="none" xmlns="http://www.w3.org/2000/svg">
<path d="M20.4311 20.3797H16.9074V14.9158C16.9074 13.6129 16.8839 11.9356 15.0747 11.9356C13.2394 11.9356 12.9586 13.3552 12.9586 14.821V20.3794H9.43491V9.14335H12.8177V10.6789H12.865C13.2036 10.1057 13.6928 9.63427 14.2805 9.31465C14.8682 8.99503 15.5325 8.83924 16.2026 8.86387C19.7741 8.86387 20.4325 11.1899 20.4325 14.2158L20.4311 20.3797ZM5.45902 7.60747C5.05458 7.60754 4.6592 7.48886 4.32289 7.26644C3.98658 7.04403 3.72444 6.72785 3.56961 6.35792C3.41477 5.98798 3.37419 5.58088 3.45302 5.18811C3.53185 4.79535 3.72655 4.43454 4.01247 4.15133C4.2984 3.86812 4.66272 3.67522 5.05937 3.59703C5.45602 3.51883 5.86716 3.55886 6.24084 3.71203C6.61451 3.86521 6.93392 4.12467 7.15867 4.45759C7.38342 4.79051 7.50343 5.18195 7.5035 5.5824C7.50355 5.84828 7.4507 6.11158 7.34798 6.35724C7.24526 6.60291 7.09469 6.82614 6.90484 7.01419C6.715 7.20223 6.48958 7.35141 6.24151 7.4532C5.99344 7.555 5.72755 7.60742 5.45902 7.60747ZM7.22086 20.3797H3.6935V9.14335H7.22086V20.3797ZM22.1878 0.318011H1.92285C1.46289 0.312871 1.01967 0.488751 0.69061 0.807003C0.361554 1.12525 0.173582 1.55984 0.167969 2.01526V22.1638C0.17339 22.6195 0.361251 23.0544 0.690297 23.373C1.01934 23.6915 1.46266 23.8678 1.92285 23.8629H22.1878C22.6489 23.8686 23.0934 23.6929 23.4238 23.3743C23.7541 23.0558 23.9432 22.6204 23.9496 22.1638V2.01381C23.943 1.55748 23.7538 1.1224 23.4234 0.804159C23.0931 0.485916 22.6486 0.310538 22.1878 0.316556" fill="white"/>
</svg>
