<svg width="37" height="37" viewBox="0 0 37 37" fill="none" xmlns="http://www.w3.org/2000/svg">
<path fill-rule="evenodd" clip-rule="evenodd" d="M24.8866 33.2891C22.7266 33.2096 16.6051 32.3636 10.1941 25.9541C3.78459 19.5431 2.94009 13.4231 2.85909 11.2616C2.73909 7.96756 5.26209 4.76806 8.17659 3.51856C8.52756 3.36701 8.9119 3.30931 9.29189 3.35112C9.67188 3.39293 10.0345 3.53282 10.3441 3.75706C12.7441 5.50606 14.4001 8.15206 15.8221 10.2326C16.135 10.6897 16.2687 11.2459 16.1979 11.7953C16.1271 12.3446 15.8567 12.8487 15.4381 13.2116L12.5116 15.3851C12.3702 15.4872 12.2707 15.6371 12.2315 15.807C12.1923 15.977 12.2162 16.1554 12.2986 16.3091C12.9616 17.5136 14.1406 19.3076 15.4906 20.6576C16.8406 22.0076 18.7201 23.2646 20.0086 24.0026C20.1701 24.0932 20.3603 24.1186 20.54 24.0734C20.7196 24.0282 20.8752 23.9159 20.9746 23.7596L22.8796 20.8601C23.2298 20.3948 23.7465 20.0832 24.3214 19.9903C24.8962 19.8975 25.4847 20.0307 25.9636 20.3621C28.0741 21.8231 30.5371 23.4506 32.3401 25.7591C32.5825 26.0709 32.7368 26.4422 32.7866 26.834C32.8365 27.2259 32.7802 27.6239 32.6236 27.9866C31.3681 30.9161 28.1911 33.4106 24.8866 33.2891Z" fill="white"/>
</svg>
